<?xml version="1.0" encoding="utf-8" standalone="no"?>
<!DOCTYPE svg PUBLIC "-//W3C//DTD SVG 1.1//EN"
  "http://www.w3.org/Graphics/SVG/1.1/DTD/svg11.dtd">
<svg xmlns:xlink="http://www.w3.org/1999/xlink" width="720pt" height="576pt" viewBox="0 0 720 576" xmlns="http://www.w3.org/2000/svg" version="1.1">
 <metadata>
  <rdf:RDF xmlns:dc="http://purl.org/dc/elements/1.1/" xmlns:cc="http://creativecommons.org/ns#" xmlns:rdf="http://www.w3.org/1999/02/22-rdf-syntax-ns#">
   <cc:Work>
    <dc:type rdf:resource="http://purl.org/dc/dcmitype/StillImage"/>
    <dc:date>2026-09-09T16:07:24.486682</dc:date>
    <dc:format>image/svg+xml</dc:format>
    <dc:creator>
     <cc:Agent>
      <dc:title>Matplotlib v3.11.1, https://matplotlib.org/</dc:title>
     </cc:Agent>
    </dc:creator>
   </cc:Work>
  </rdf:RDF>
 </metadata>
 <defs>
  <style type="text/css">*{stroke-linejoin: round; stroke-linecap: butt}</style>
 </defs>
 <g id="figure_1">
  <g id="patch_1">
   <path d="M 0 576 
L 720 576 
L 720 0 
L 0 0 
z
" style="fill: #ffffff"/>
  </g>
  <g id="axes_1">
   <g id="patch_2">
    <path d="M 51.468209 170.227152 
L 716.99976 170.227152 
L 716.99976 23.246601 
L 51.468209 23.246601 
z
" style="fill: #ffffff"/>
   </g>
   <g id="patch_3">
    <path d="M 81.719643 110.566556 
L 209.094102 110.566556 
L 209.094102 145.730393 
L 81.719643 145.730393 
z
" clip-path="url(#pa1cb1c52df)" style="fill: #087d85"/>
   </g>
   <g id="patch_4">
    <path d="M 240.937717 110.566556 
L 368.312177 110.566556 
L 368.312177 145.730393 
L 240.937717 145.730393 
z
" clip-path="url(#pa1cb1c52df)" style="fill: #087d85"/>
   </g>
   <g id="patch_5">
    <path d="M 400.155792 110.566556 
L 527.530251 110.566556 
L 527.530251 47.743359 
L 400.155792 47.743359 
z
" clip-path="url(#pa1cb1c52df)" style="fill: #087d85"/>
   </g>
   <g id="patch_6">
    <path d="M 559.373866 110.566556 
L 686.748326 110.566556 
L 686.748326 47.743359 
L 559.373866 47.743359 
z
" clip-path="url(#pa1cb1c52df)" style="fill: #087d85"/>
   </g>
   <g id="matplotlib.axis_1">
    <g id="xtick_1">
     <g id="line2d_1">
      <defs>
       <path id="m6518d6369a" d="M 0 0 
L 0 3.5 
" style="stroke: #000000; stroke-width: 0.8"/>
      </defs>
      <g>
       <use xlink:href="#m6518d6369a" x="145.406873" y="170.227152" style="stroke: #000000; stroke-width: 0.8"/>
      </g>
     </g>
     <g id="text_1">
      <!-- 260909201 -->
      <g transform="translate(116.775623 185.825785) scale(0.1 -0.1)">
       <defs>
        <path id="DejaVuSans-15" d="M 1228 531 
L 3431 531 
L 3431 0 
L 469 0 
L 469 531 
Q 828 903 1448 1529 
Q 2069 2156 2228 2338 
Q 2531 2678 2651 2914 
Q 2772 3150 2772 3378 
Q 2772 3750 2511 3984 
Q 2250 4219 1831 4219 
Q 1534 4219 1204 4116 
Q 875 4013 500 3803 
L 500 4441 
Q 881 4594 1212 4672 
Q 1544 4750 1819 4750 
Q 2544 4750 2975 4387 
Q 3406 4025 3406 3419 
Q 3406 3131 3298 2873 
Q 3191 2616 2906 2266 
Q 2828 2175 2409 1742 
Q 1991 1309 1228 531 
z
" transform="scale(0.015625)"/>
        <path id="DejaVuSans-19" d="M 2113 2584 
Q 1688 2584 1439 2293 
Q 1191 2003 1191 1497 
Q 1191 994 1439 701 
Q 1688 409 2113 409 
Q 2538 409 2786 701 
Q 3034 994 3034 1497 
Q 3034 2003 2786 2293 
Q 2538 2584 2113 2584 
z
M 3366 4563 
L 3366 3988 
Q 3128 4100 2886 4159 
Q 2644 4219 2406 4219 
Q 1781 4219 1451 3797 
Q 1122 3375 1075 2522 
Q 1259 2794 1537 2939 
Q 1816 3084 2150 3084 
Q 2853 3084 3261 2657 
Q 3669 2231 3669 1497 
Q 3669 778 3244 343 
Q 2819 -91 2113 -91 
Q 1303 -91 875 529 
Q 447 1150 447 2328 
Q 447 3434 972 4092 
Q 1497 4750 2381 4750 
Q 2619 4750 2861 4703 
Q 3103 4656 3366 4563 
z
" transform="scale(0.015625)"/>
        <path id="DejaVuSans-13" d="M 2034 4250 
Q 1547 4250 1301 3770 
Q 1056 3291 1056 2328 
Q 1056 1369 1301 889 
Q 1547 409 2034 409 
Q 2525 409 2770 889 
Q 3016 1369 3016 2328 
Q 3016 3291 2770 3770 
Q 2525 4250 2034 4250 
z
M 2034 4750 
Q 2819 4750 3233 4129 
Q 3647 3509 3647 2328 
Q 3647 1150 3233 529 
Q 2819 -91 2034 -91 
Q 1250 -91 836 529 
Q 422 1150 422 2328 
Q 422 3509 836 4129 
Q 1250 4750 2034 4750 
z
" transform="scale(0.015625)"/>
        <path id="DejaVuSans-1c" d="M 703 97 
L 703 672 
Q 941 559 1184 500 
Q 1428 441 1663 441 
Q 2288 441 2617 861 
Q 2947 1281 2994 2138 
Q 2813 1869 2534 1725 
Q 2256 1581 1919 1581 
Q 1219 1581 811 2004 
Q 403 2428 403 3163 
Q 403 3881 828 4315 
Q 1253 4750 1959 4750 
Q 2769 4750 3195 4129 
Q 3622 3509 3622 2328 
Q 3622 1225 3098 567 
Q 2575 -91 1691 -91 
Q 1453 -91 1209 -44 
Q 966 3 703 97 
z
M 1959 2075 
Q 2384 2075 2632 2365 
Q 2881 2656 2881 3163 
Q 2881 3666 2632 3958 
Q 2384 4250 1959 4250 
Q 1534 4250 1286 3958 
Q 1038 3666 1038 3163 
Q 1038 2656 1286 2365 
Q 1534 2075 1959 2075 
z
" transform="scale(0.015625)"/>
        <path id="DejaVuSans-14" d="M 794 531 
L 1825 531 
L 1825 4091 
L 703 3866 
L 703 4441 
L 1819 4666 
L 2450 4666 
L 2450 531 
L 3481 531 
L 3481 0 
L 794 0 
L 794 531 
z
" transform="scale(0.015625)"/>
       </defs>
       <use xlink:href="#DejaVuSans-15"/>
       <use xlink:href="#DejaVuSans-19" transform="translate(63.625 0)"/>
       <use xlink:href="#DejaVuSans-13" transform="translate(127.25 0)"/>
       <use xlink:href="#DejaVuSans-1c" transform="translate(190.875 0)"/>
       <use xlink:href="#DejaVuSans-13" transform="translate(254.5 0)"/>
       <use xlink:href="#DejaVuSans-1c" transform="translate(318.125 0)"/>
       <use xlink:href="#DejaVuSans-15" transform="translate(381.75 0)"/>
       <use xlink:href="#DejaVuSans-13" transform="translate(445.375 0)"/>
       <use xlink:href="#DejaVuSans-14" transform="translate(509 0)"/>
      </g>
      <!-- posto 0 -->
      <g transform="translate(126.778748 197.827738) scale(0.1 -0.1)">
       <defs>
        <path id="DejaVuSans-53" d="M 1159 525 
L 1159 -1331 
L 581 -1331 
L 581 3500 
L 1159 3500 
L 1159 2969 
Q 1341 3281 1617 3432 
Q 1894 3584 2278 3584 
Q 2916 3584 3314 3078 
Q 3713 2572 3713 1747 
Q 3713 922 3314 415 
Q 2916 -91 2278 -91 
Q 1894 -91 1617 61 
Q 1341 213 1159 525 
z
M 3116 1747 
Q 3116 2381 2855 2742 
Q 2594 3103 2138 3103 
Q 1681 3103 1420 2742 
Q 1159 2381 1159 1747 
Q 1159 1113 1420 752 
Q 1681 391 2138 391 
Q 2594 391 2855 752 
Q 3116 1113 3116 1747 
z
" transform="scale(0.015625)"/>
        <path id="DejaVuSans-52" d="M 1959 3097 
Q 1497 3097 1228 2736 
Q 959 2375 959 1747 
Q 959 1119 1226 758 
Q 1494 397 1959 397 
Q 2419 397 2687 759 
Q 2956 1122 2956 1747 
Q 2956 2369 2687 2733 
Q 2419 3097 1959 3097 
z
M 1959 3584 
Q 2709 3584 3137 3096 
Q 3566 2609 3566 1747 
Q 3566 888 3137 398 
Q 2709 -91 1959 -91 
Q 1206 -91 779 398 
Q 353 888 353 1747 
Q 353 2609 779 3096 
Q 1206 3584 1959 3584 
z
" transform="scale(0.015625)"/>
        <path id="DejaVuSans-56" d="M 2834 3397 
L 2834 2853 
Q 2591 2978 2328 3040 
Q 2066 3103 1784 3103 
Q 1356 3103 1142 2972 
Q 928 2841 928 2578 
Q 928 2378 1081 2264 
Q 1234 2150 1697 2047 
L 1894 2003 
Q 2506 1872 2764 1633 
Q 3022 1394 3022 966 
Q 3022 478 2636 193 
Q 2250 -91 1575 -91 
Q 1294 -91 989 -36 
Q 684 19 347 128 
L 347 722 
Q 666 556 975 473 
Q 1284 391 1588 391 
Q 1994 391 2212 530 
Q 2431 669 2431 922 
Q 2431 1156 2273 1281 
Q 2116 1406 1581 1522 
L 1381 1569 
Q 847 1681 609 1914 
Q 372 2147 372 2553 
Q 372 3047 722 3315 
Q 1072 3584 1716 3584 
Q 2034 3584 2315 3537 
Q 2597 3491 2834 3397 
z
" transform="scale(0.015625)"/>
        <path id="DejaVuSans-57" d="M 1172 4494 
L 1172 3500 
L 2356 3500 
L 2356 3053 
L 1172 3053 
L 1172 1153 
Q 1172 725 1289 603 
Q 1406 481 1766 481 
L 2356 481 
L 2356 0 
L 1766 0 
Q 1100 0 847 248 
Q 594 497 594 1153 
L 594 3053 
L 172 3053 
L 172 3500 
L 594 3500 
L 594 4494 
L 1172 4494 
z
" transform="scale(0.015625)"/>
        <path id="DejaVuSans-3" transform="scale(0.015625)"/>
       </defs>
       <use xlink:href="#DejaVuSans-53"/>
       <use xlink:href="#DejaVuSans-52" transform="translate(63.484375 0)"/>
       <use xlink:href="#DejaVuSans-56" transform="translate(124.671875 0)"/>
       <use xlink:href="#DejaVuSans-57" transform="translate(176.765625 0)"/>
       <use xlink:href="#DejaVuSans-52" transform="translate(215.96875 0)"/>
       <use xlink:href="#DejaVuSans-3" transform="translate(277.15625 0)"/>
       <use xlink:href="#DejaVuSans-13" transform="translate(308.9375 0)"/>
      </g>
     </g>
    </g>
    <g id="xtick_2">
     <g id="line2d_2">
      <g>
       <use xlink:href="#m6518d6369a" x="304.624947" y="170.227152" style="stroke: #000000; stroke-width: 0.8"/>
      </g>
     </g>
     <g id="text_2">
      <!-- 260909201 -->
      <g transform="translate(275.993697 185.825785) scale(0.1 -0.1)">
       <use xlink:href="#DejaVuSans-15"/>
       <use xlink:href="#DejaVuSans-19" transform="translate(63.625 0)"/>
       <use xlink:href="#DejaVuSans-13" transform="translate(127.25 0)"/>
       <use xlink:href="#DejaVuSans-1c" transform="translate(190.875 0)"/>
       <use xlink:href="#DejaVuSans-13" transform="translate(254.5 0)"/>
       <use xlink:href="#DejaVuSans-1c" transform="translate(318.125 0)"/>
       <use xlink:href="#DejaVuSans-15" transform="translate(381.75 0)"/>
       <use xlink:href="#DejaVuSans-13" transform="translate(445.375 0)"/>
       <use xlink:href="#DejaVuSans-14" transform="translate(509 0)"/>
      </g>
      <!-- posto 1 -->
      <g transform="translate(285.996822 197.827738) scale(0.1 -0.1)">
       <use xlink:href="#DejaVuSans-53"/>
       <use xlink:href="#DejaVuSans-52" transform="translate(63.484375 0)"/>
       <use xlink:href="#DejaVuSans-56" transform="translate(124.671875 0)"/>
       <use xlink:href="#DejaVuSans-57" transform="translate(176.765625 0)"/>
       <use xlink:href="#DejaVuSans-52" transform="translate(215.96875 0)"/>
       <use xlink:href="#DejaVuSans-3" transform="translate(277.15625 0)"/>
       <use xlink:href="#DejaVuSans-14" transform="translate(308.9375 0)"/>
      </g>
     </g>
    </g>
    <g id="xtick_3">
     <g id="line2d_3">
      <g>
       <use xlink:href="#m6518d6369a" x="463.843022" y="170.227152" style="stroke: #000000; stroke-width: 0.8"/>
      </g>
     </g>
     <g id="text_3">
      <!-- 260909202 -->
      <g transform="translate(435.211772 185.825785) scale(0.1 -0.1)">
       <use xlink:href="#DejaVuSans-15"/>
       <use xlink:href="#DejaVuSans-19" transform="translate(63.625 0)"/>
       <use xlink:href="#DejaVuSans-13" transform="translate(127.25 0)"/>
       <use xlink:href="#DejaVuSans-1c" transform="translate(190.875 0)"/>
       <use xlink:href="#DejaVuSans-13" transform="translate(254.5 0)"/>
       <use xlink:href="#DejaVuSans-1c" transform="translate(318.125 0)"/>
       <use xlink:href="#DejaVuSans-15" transform="translate(381.75 0)"/>
       <use xlink:href="#DejaVuSans-13" transform="translate(445.375 0)"/>
       <use xlink:href="#DejaVuSans-15" transform="translate(509 0)"/>
      </g>
      <!-- posto 0 -->
      <g transform="translate(445.214897 197.827738) scale(0.1 -0.1)">
       <use xlink:href="#DejaVuSans-53"/>
       <use xlink:href="#DejaVuSans-52" transform="translate(63.484375 0)"/>
       <use xlink:href="#DejaVuSans-56" transform="translate(124.671875 0)"/>
       <use xlink:href="#DejaVuSans-57" transform="translate(176.765625 0)"/>
       <use xlink:href="#DejaVuSans-52" transform="translate(215.96875 0)"/>
       <use xlink:href="#DejaVuSans-3" transform="translate(277.15625 0)"/>
       <use xlink:href="#DejaVuSans-13" transform="translate(308.9375 0)"/>
      </g>
     </g>
    </g>
    <g id="xtick_4">
     <g id="line2d_4">
      <g>
       <use xlink:href="#m6518d6369a" x="623.061096" y="170.227152" style="stroke: #000000; stroke-width: 0.8"/>
      </g>
     </g>
     <g id="text_4">
      <!-- 260909202 -->
      <g transform="translate(594.429846 185.825785) scale(0.1 -0.1)">
       <use xlink:href="#DejaVuSans-15"/>
       <use xlink:href="#DejaVuSans-19" transform="translate(63.625 0)"/>
       <use xlink:href="#DejaVuSans-13" transform="translate(127.25 0)"/>
       <use xlink:href="#DejaVuSans-1c" transform="translate(190.875 0)"/>
       <use xlink:href="#DejaVuSans-13" transform="translate(254.5 0)"/>
       <use xlink:href="#DejaVuSans-1c" transform="translate(318.125 0)"/>
       <use xlink:href="#DejaVuSans-15" transform="translate(381.75 0)"/>
       <use xlink:href="#DejaVuSans-13" transform="translate(445.375 0)"/>
       <use xlink:href="#DejaVuSans-15" transform="translate(509 0)"/>
      </g>
      <!-- posto 1 -->
      <g transform="translate(604.432971 197.827738) scale(0.1 -0.1)">
       <use xlink:href="#DejaVuSans-53"/>
       <use xlink:href="#DejaVuSans-52" transform="translate(63.484375 0)"/>
       <use xlink:href="#DejaVuSans-56" transform="translate(124.671875 0)"/>
       <use xlink:href="#DejaVuSans-57" transform="translate(176.765625 0)"/>
       <use xlink:href="#DejaVuSans-52" transform="translate(215.96875 0)"/>
       <use xlink:href="#DejaVuSans-3" transform="translate(277.15625 0)"/>
       <use xlink:href="#DejaVuSans-14" transform="translate(308.9375 0)"/>
      </g>
     </g>
    </g>
   </g>
   <g id="matplotlib.axis_2">
    <g id="ytick_1">
     <g id="line2d_5">
      <defs>
       <path id="md20d055e3e" d="M 0 0 
L -3.5 0 
" style="stroke: #000000; stroke-width: 0.8"/>
      </defs>
      <g>
       <use xlink:href="#md20d055e3e" x="51.468209" y="153.449284" style="stroke: #000000; stroke-width: 0.8"/>
      </g>
     </g>
     <g id="text_5">
      <!-- −200 -->
      <g transform="translate(17.001021 157.248112) scale(0.1 -0.1)">
       <defs>
        <path id="DejaVuSans-c9c" d="M 678 2272 
L 4684 2272 
L 4684 1741 
L 678 1741 
L 678 2272 
z
" transform="scale(0.015625)"/>
       </defs>
       <use xlink:href="#DejaVuSans-c9c"/>
       <use xlink:href="#DejaVuSans-15" transform="translate(83.796875 0)"/>
       <use xlink:href="#DejaVuSans-13" transform="translate(147.421875 0)"/>
       <use xlink:href="#DejaVuSans-13" transform="translate(211.046875 0)"/>
      </g>
     </g>
    </g>
    <g id="ytick_2">
     <g id="line2d_6">
      <g>
       <use xlink:href="#md20d055e3e" x="51.468209" y="132.00792" style="stroke: #000000; stroke-width: 0.8"/>
      </g>
     </g>
     <g id="text_6">
      <!-- −100 -->
      <g transform="translate(17.001021 135.806748) scale(0.1 -0.1)">
       <use xlink:href="#DejaVuSans-c9c"/>
       <use xlink:href="#DejaVuSans-14" transform="translate(83.796875 0)"/>
       <use xlink:href="#DejaVuSans-13" transform="translate(147.421875 0)"/>
       <use xlink:href="#DejaVuSans-13" transform="translate(211.046875 0)"/>
      </g>
     </g>
    </g>
    <g id="ytick_3">
     <g id="line2d_7">
      <g>
       <use xlink:href="#md20d055e3e" x="51.468209" y="110.566556" style="stroke: #000000; stroke-width: 0.8"/>
      </g>
     </g>
     <g id="text_7">
      <!-- 0 -->
      <g transform="translate(38.105709 114.365384) scale(0.1 -0.1)">
       <use xlink:href="#DejaVuSans-13"/>
      </g>
     </g>
    </g>
    <g id="ytick_4">
     <g id="line2d_8">
      <g>
       <use xlink:href="#md20d055e3e" x="51.468209" y="89.125192" style="stroke: #000000; stroke-width: 0.8"/>
      </g>
     </g>
     <g id="text_8">
      <!-- 100 -->
      <g transform="translate(25.380709 92.92402) scale(0.1 -0.1)">
       <use xlink:href="#DejaVuSans-14"/>
       <use xlink:href="#DejaVuSans-13" transform="translate(63.625 0)"/>
       <use xlink:href="#DejaVuSans-13" transform="translate(127.25 0)"/>
      </g>
     </g>
    </g>
    <g id="ytick_5">
     <g id="line2d_9">
      <g>
       <use xlink:href="#md20d055e3e" x="51.468209" y="67.683828" style="stroke: #000000; stroke-width: 0.8"/>
      </g>
     </g>
     <g id="text_9">
      <!-- 200 -->
      <g transform="translate(25.380709 71.482656) scale(0.1 -0.1)">
       <use xlink:href="#DejaVuSans-15"/>
       <use xlink:href="#DejaVuSans-13" transform="translate(63.625 0)"/>
       <use xlink:href="#DejaVuSans-13" transform="translate(127.25 0)"/>
      </g>
     </g>
    </g>
    <g id="ytick_6">
     <g id="line2d_10">
      <g>
       <use xlink:href="#md20d055e3e" x="51.468209" y="46.242464" style="stroke: #000000; stroke-width: 0.8"/>
      </g>
     </g>
     <g id="text_10">
      <!-- 300 -->
      <g transform="translate(25.380709 50.041292) scale(0.1 -0.1)">
       <defs>
        <path id="DejaVuSans-16" d="M 2597 2516 
Q 3050 2419 3304 2112 
Q 3559 1806 3559 1356 
Q 3559 666 3084 287 
Q 2609 -91 1734 -91 
Q 1441 -91 1130 -33 
Q 819 25 488 141 
L 488 750 
Q 750 597 1062 519 
Q 1375 441 1716 441 
Q 2309 441 2620 675 
Q 2931 909 2931 1356 
Q 2931 1769 2642 2001 
Q 2353 2234 1838 2234 
L 1294 2234 
L 1294 2753 
L 1863 2753 
Q 2328 2753 2575 2939 
Q 2822 3125 2822 3475 
Q 2822 3834 2567 4026 
Q 2313 4219 1838 4219 
Q 1578 4219 1281 4162 
Q 984 4106 628 3988 
L 628 4550 
Q 988 4650 1302 4700 
Q 1616 4750 1894 4750 
Q 2613 4750 3031 4423 
Q 3450 4097 3450 3541 
Q 3450 3153 3228 2886 
Q 3006 2619 2597 2516 
z
" transform="scale(0.015625)"/>
       </defs>
       <use xlink:href="#DejaVuSans-16"/>
       <use xlink:href="#DejaVuSans-13" transform="translate(63.625 0)"/>
       <use xlink:href="#DejaVuSans-13" transform="translate(127.25 0)"/>
      </g>
     </g>
    </g>
    <g id="ytick_7">
     <g id="line2d_11">
      <g>
       <use xlink:href="#md20d055e3e" x="51.468209" y="24.8011" style="stroke: #000000; stroke-width: 0.8"/>
      </g>
     </g>
     <g id="text_11">
      <!-- 400 -->
      <g transform="translate(25.380709 28.599928) scale(0.1 -0.1)">
       <defs>
        <path id="DejaVuSans-17" d="M 2419 4116 
L 825 1625 
L 2419 1625 
L 2419 4116 
z
M 2253 4666 
L 3047 4666 
L 3047 1625 
L 3713 1625 
L 3713 1100 
L 3047 1100 
L 3047 0 
L 2419 0 
L 2419 1100 
L 313 1100 
L 313 1709 
L 2253 4666 
z
" transform="scale(0.015625)"/>
       </defs>
       <use xlink:href="#DejaVuSans-17"/>
       <use xlink:href="#DejaVuSans-13" transform="translate(63.625 0)"/>
       <use xlink:href="#DejaVuSans-13" transform="translate(127.25 0)"/>
      </g>
     </g>
    </g>
    <g id="text_12">
     <!-- Δ cash -->
     <g transform="translate(10.598678 113.33297) rotate(-90) scale(0.1 -0.1)">
      <defs>
       <path id="DejaVuSans-329" d="M 2188 4044 
L 906 525 
L 3472 525 
L 2188 4044 
z
M 50 0 
L 1831 4666 
L 2547 4666 
L 4325 0 
L 50 0 
z
" transform="scale(0.015625)"/>
       <path id="DejaVuSans-46" d="M 3122 3366 
L 3122 2828 
Q 2878 2963 2633 3030 
Q 2388 3097 2138 3097 
Q 1578 3097 1268 2742 
Q 959 2388 959 1747 
Q 959 1106 1268 751 
Q 1578 397 2138 397 
Q 2388 397 2633 464 
Q 2878 531 3122 666 
L 3122 134 
Q 2881 22 2623 -34 
Q 2366 -91 2075 -91 
Q 1284 -91 818 406 
Q 353 903 353 1747 
Q 353 2603 823 3093 
Q 1294 3584 2113 3584 
Q 2378 3584 2631 3529 
Q 2884 3475 3122 3366 
z
" transform="scale(0.015625)"/>
       <path id="DejaVuSans-44" d="M 2194 1759 
Q 1497 1759 1228 1600 
Q 959 1441 959 1056 
Q 959 750 1161 570 
Q 1363 391 1709 391 
Q 2188 391 2477 730 
Q 2766 1069 2766 1631 
L 2766 1759 
L 2194 1759 
z
M 3341 1997 
L 3341 0 
L 2766 0 
L 2766 531 
Q 2569 213 2275 61 
Q 1981 -91 1556 -91 
Q 1019 -91 701 211 
Q 384 513 384 1019 
Q 384 1609 779 1909 
Q 1175 2209 1959 2209 
L 2766 2209 
L 2766 2266 
Q 2766 2663 2505 2880 
Q 2244 3097 1772 3097 
Q 1472 3097 1187 3025 
Q 903 2953 641 2809 
L 641 3341 
Q 956 3463 1253 3523 
Q 1550 3584 1831 3584 
Q 2591 3584 2966 3190 
Q 3341 2797 3341 1997 
z
" transform="scale(0.015625)"/>
       <path id="DejaVuSans-4b" d="M 3513 2113 
L 3513 0 
L 2938 0 
L 2938 2094 
Q 2938 2591 2744 2837 
Q 2550 3084 2163 3084 
Q 1697 3084 1428 2787 
Q 1159 2491 1159 1978 
L 1159 0 
L 581 0 
L 581 4863 
L 1159 4863 
L 1159 2956 
Q 1366 3272 1645 3428 
Q 1925 3584 2291 3584 
Q 2894 3584 3203 3211 
Q 3513 2838 3513 2113 
z
" transform="scale(0.015625)"/>
      </defs>
      <use xlink:href="#DejaVuSans-329"/>
      <use xlink:href="#DejaVuSans-3" transform="translate(68.40625 0)"/>
      <use xlink:href="#DejaVuSans-46" transform="translate(100.1875 0)"/>
      <use xlink:href="#DejaVuSans-44" transform="translate(155.171875 0)"/>
      <use xlink:href="#DejaVuSans-56" transform="translate(216.453125 0)"/>
      <use xlink:href="#DejaVuSans-4b" transform="translate(268.546875 0)"/>
     </g>
    </g>
   </g>
   <g id="line2d_12">
    <path d="M 51.468209 110.566556 
L 716.99976 110.566556 
" clip-path="url(#pa1cb1c52df)" style="fill: none; stroke: #334450; stroke-width: 0.8; stroke-linecap: square"/>
   </g>
   <g id="patch_7">
    <path d="M 51.468209 170.227152 
L 51.468209 23.246601 
" style="fill: none; stroke: #000000; stroke-width: 0.8; stroke-linejoin: miter; stroke-linecap: square"/>
   </g>
   <g id="patch_8">
    <path d="M 51.468209 170.227152 
L 716.99976 170.227152 
" style="fill: none; stroke: #000000; stroke-width: 0.8; stroke-linejoin: miter; stroke-linecap: square"/>
   </g>
   <g id="text_13">
    <!-- -164 -->
    <g transform="translate(134.059216 156.32805) scale(0.1 -0.1)">
     <defs>
      <path id="DejaVuSans-10" d="M 313 2009 
L 1997 2009 
L 1997 1497 
L 313 1497 
L 313 2009 
z
" transform="scale(0.015625)"/>
     </defs>
     <use xlink:href="#DejaVuSans-10"/>
     <use xlink:href="#DejaVuSans-14" transform="translate(36.078125 0)"/>
     <use xlink:href="#DejaVuSans-19" transform="translate(99.703125 0)"/>
     <use xlink:href="#DejaVuSans-17" transform="translate(163.328125 0)"/>
    </g>
   </g>
   <g id="text_14">
    <!-- -164 -->
    <g transform="translate(293.277291 156.32805) scale(0.1 -0.1)">
     <use xlink:href="#DejaVuSans-10"/>
     <use xlink:href="#DejaVuSans-14" transform="translate(36.078125 0)"/>
     <use xlink:href="#DejaVuSans-19" transform="translate(99.703125 0)"/>
     <use xlink:href="#DejaVuSans-17" transform="translate(163.328125 0)"/>
    </g>
   </g>
   <g id="text_15">
    <!-- +293 -->
    <g transform="translate(450.109428 42.341016) scale(0.1 -0.1)">
     <defs>
      <path id="DejaVuSans-e" d="M 2944 4013 
L 2944 2272 
L 4684 2272 
L 4684 1741 
L 2944 1741 
L 2944 0 
L 2419 0 
L 2419 1741 
L 678 1741 
L 678 2272 
L 2419 2272 
L 2419 4013 
L 2944 4013 
z
" transform="scale(0.015625)"/>
     </defs>
     <use xlink:href="#DejaVuSans-e"/>
     <use xlink:href="#DejaVuSans-15" transform="translate(83.796875 0)"/>
     <use xlink:href="#DejaVuSans-1c" transform="translate(147.421875 0)"/>
     <use xlink:href="#DejaVuSans-16" transform="translate(211.046875 0)"/>
    </g>
   </g>
   <g id="text_16">
    <!-- +293 -->
    <g transform="translate(609.327502 42.341016) scale(0.1 -0.1)">
     <use xlink:href="#DejaVuSans-e"/>
     <use xlink:href="#DejaVuSans-15" transform="translate(83.796875 0)"/>
     <use xlink:href="#DejaVuSans-1c" transform="translate(147.421875 0)"/>
     <use xlink:href="#DejaVuSans-16" transform="translate(211.046875 0)"/>
    </g>
   </g>
  </g>
  <g id="axes_2">
   <g id="patch_9">
    <path d="M 51.468209 354.212089 
L 716.99976 354.212089 
L 716.99976 207.231538 
L 51.468209 207.231538 
z
" style="fill: #ffffff"/>
   </g>
   <g id="patch_10">
    <path d="M 81.719643 243.875449 
L 209.094102 243.875449 
L 209.094102 231.728296 
L 81.719643 231.728296 
z
" clip-path="url(#p339da77240)" style="fill: #087d85"/>
   </g>
   <g id="patch_11">
    <path d="M 240.937717 243.875449 
L 368.312177 243.875449 
L 368.312177 231.728296 
L 240.937717 231.728296 
z
" clip-path="url(#p339da77240)" style="fill: #087d85"/>
   </g>
   <g id="patch_12">
    <path d="M 400.155792 243.875449 
L 527.530251 243.875449 
L 527.530251 329.71533 
L 400.155792 329.71533 
z
" clip-path="url(#p339da77240)" style="fill: #087d85"/>
   </g>
   <g id="patch_13">
    <path d="M 559.373866 243.875449 
L 686.748326 243.875449 
L 686.748326 329.71533 
L 559.373866 329.71533 
z
" clip-path="url(#p339da77240)" style="fill: #087d85"/>
   </g>
   <g id="matplotlib.axis_3">
    <g id="xtick_5">
     <g id="line2d_13">
      <g>
       <use xlink:href="#m6518d6369a" x="145.406873" y="354.212089" style="stroke: #000000; stroke-width: 0.8"/>
      </g>
     </g>
     <g id="text_17">
      <!-- 260909201 -->
      <g transform="translate(116.775623 369.810721) scale(0.1 -0.1)">
       <use xlink:href="#DejaVuSans-15"/>
       <use xlink:href="#DejaVuSans-19" transform="translate(63.625 0)"/>
       <use xlink:href="#DejaVuSans-13" transform="translate(127.25 0)"/>
       <use xlink:href="#DejaVuSans-1c" transform="translate(190.875 0)"/>
       <use xlink:href="#DejaVuSans-13" transform="translate(254.5 0)"/>
       <use xlink:href="#DejaVuSans-1c" transform="translate(318.125 0)"/>
       <use xlink:href="#DejaVuSans-15" transform="translate(381.75 0)"/>
       <use xlink:href="#DejaVuSans-13" transform="translate(445.375 0)"/>
       <use xlink:href="#DejaVuSans-14" transform="translate(509 0)"/>
      </g>
      <!-- posto 0 -->
      <g transform="translate(126.778748 381.812675) scale(0.1 -0.1)">
       <use xlink:href="#DejaVuSans-53"/>
       <use xlink:href="#DejaVuSans-52" transform="translate(63.484375 0)"/>
       <use xlink:href="#DejaVuSans-56" transform="translate(124.671875 0)"/>
       <use xlink:href="#DejaVuSans-57" transform="translate(176.765625 0)"/>
       <use xlink:href="#DejaVuSans-52" transform="translate(215.96875 0)"/>
       <use xlink:href="#DejaVuSans-3" transform="translate(277.15625 0)"/>
       <use xlink:href="#DejaVuSans-13" transform="translate(308.9375 0)"/>
      </g>
     </g>
    </g>
    <g id="xtick_6">
     <g id="line2d_14">
      <g>
       <use xlink:href="#m6518d6369a" x="304.624947" y="354.212089" style="stroke: #000000; stroke-width: 0.8"/>
      </g>
     </g>
     <g id="text_18">
      <!-- 260909201 -->
      <g transform="translate(275.993697 369.810721) scale(0.1 -0.1)">
       <use xlink:href="#DejaVuSans-15"/>
       <use xlink:href="#DejaVuSans-19" transform="translate(63.625 0)"/>
       <use xlink:href="#DejaVuSans-13" transform="translate(127.25 0)"/>
       <use xlink:href="#DejaVuSans-1c" transform="translate(190.875 0)"/>
       <use xlink:href="#DejaVuSans-13" transform="translate(254.5 0)"/>
       <use xlink:href="#DejaVuSans-1c" transform="translate(318.125 0)"/>
       <use xlink:href="#DejaVuSans-15" transform="translate(381.75 0)"/>
       <use xlink:href="#DejaVuSans-13" transform="translate(445.375 0)"/>
       <use xlink:href="#DejaVuSans-14" transform="translate(509 0)"/>
      </g>
      <!-- posto 1 -->
      <g transform="translate(285.996822 381.812675) scale(0.1 -0.1)">
       <use xlink:href="#DejaVuSans-53"/>
       <use xlink:href="#DejaVuSans-52" transform="translate(63.484375 0)"/>
       <use xlink:href="#DejaVuSans-56" transform="translate(124.671875 0)"/>
       <use xlink:href="#DejaVuSans-57" transform="translate(176.765625 0)"/>
       <use xlink:href="#DejaVuSans-52" transform="translate(215.96875 0)"/>
       <use xlink:href="#DejaVuSans-3" transform="translate(277.15625 0)"/>
       <use xlink:href="#DejaVuSans-14" transform="translate(308.9375 0)"/>
      </g>
     </g>
    </g>
    <g id="xtick_7">
     <g id="line2d_15">
      <g>
       <use xlink:href="#m6518d6369a" x="463.843022" y="354.212089" style="stroke: #000000; stroke-width: 0.8"/>
      </g>
     </g>
     <g id="text_19">
      <!-- 260909202 -->
      <g transform="translate(435.211772 369.810721) scale(0.1 -0.1)">
       <use xlink:href="#DejaVuSans-15"/>
       <use xlink:href="#DejaVuSans-19" transform="translate(63.625 0)"/>
       <use xlink:href="#DejaVuSans-13" transform="translate(127.25 0)"/>
       <use xlink:href="#DejaVuSans-1c" transform="translate(190.875 0)"/>
       <use xlink:href="#DejaVuSans-13" transform="translate(254.5 0)"/>
       <use xlink:href="#DejaVuSans-1c" transform="translate(318.125 0)"/>
       <use xlink:href="#DejaVuSans-15" transform="translate(381.75 0)"/>
       <use xlink:href="#DejaVuSans-13" transform="translate(445.375 0)"/>
       <use xlink:href="#DejaVuSans-15" transform="translate(509 0)"/>
      </g>
      <!-- posto 0 -->
      <g transform="translate(445.214897 381.812675) scale(0.1 -0.1)">
       <use xlink:href="#DejaVuSans-53"/>
       <use xlink:href="#DejaVuSans-52" transform="translate(63.484375 0)"/>
       <use xlink:href="#DejaVuSans-56" transform="translate(124.671875 0)"/>
       <use xlink:href="#DejaVuSans-57" transform="translate(176.765625 0)"/>
       <use xlink:href="#DejaVuSans-52" transform="translate(215.96875 0)"/>
       <use xlink:href="#DejaVuSans-3" transform="translate(277.15625 0)"/>
       <use xlink:href="#DejaVuSans-13" transform="translate(308.9375 0)"/>
      </g>
     </g>
    </g>
    <g id="xtick_8">
     <g id="line2d_16">
      <g>
       <use xlink:href="#m6518d6369a" x="623.061096" y="354.212089" style="stroke: #000000; stroke-width: 0.8"/>
      </g>
     </g>
     <g id="text_20">
      <!-- 260909202 -->
      <g transform="translate(594.429846 369.810721) scale(0.1 -0.1)">
       <use xlink:href="#DejaVuSans-15"/>
       <use xlink:href="#DejaVuSans-19" transform="translate(63.625 0)"/>
       <use xlink:href="#DejaVuSans-13" transform="translate(127.25 0)"/>
       <use xlink:href="#DejaVuSans-1c" transform="translate(190.875 0)"/>
       <use xlink:href="#DejaVuSans-13" transform="translate(254.5 0)"/>
       <use xlink:href="#DejaVuSans-1c" transform="translate(318.125 0)"/>
       <use xlink:href="#DejaVuSans-15" transform="translate(381.75 0)"/>
       <use xlink:href="#DejaVuSans-13" transform="translate(445.375 0)"/>
       <use xlink:href="#DejaVuSans-15" transform="translate(509 0)"/>
      </g>
      <!-- posto 1 -->
      <g transform="translate(604.432971 381.812675) scale(0.1 -0.1)">
       <use xlink:href="#DejaVuSans-53"/>
       <use xlink:href="#DejaVuSans-52" transform="translate(63.484375 0)"/>
       <use xlink:href="#DejaVuSans-56" transform="translate(124.671875 0)"/>
       <use xlink:href="#DejaVuSans-57" transform="translate(176.765625 0)"/>
       <use xlink:href="#DejaVuSans-52" transform="translate(215.96875 0)"/>
       <use xlink:href="#DejaVuSans-3" transform="translate(277.15625 0)"/>
       <use xlink:href="#DejaVuSans-14" transform="translate(308.9375 0)"/>
      </g>
     </g>
    </g>
   </g>
   <g id="matplotlib.axis_4">
    <g id="ytick_8">
     <g id="line2d_17">
      <g>
       <use xlink:href="#md20d055e3e" x="51.468209" y="324.856469" style="stroke: #000000; stroke-width: 0.8"/>
      </g>
     </g>
     <g id="text_21">
      <!-- −100 -->
      <g transform="translate(17.001021 328.655297) scale(0.1 -0.1)">
       <use xlink:href="#DejaVuSans-c9c"/>
       <use xlink:href="#DejaVuSans-14" transform="translate(83.796875 0)"/>
       <use xlink:href="#DejaVuSans-13" transform="translate(147.421875 0)"/>
       <use xlink:href="#DejaVuSans-13" transform="translate(211.046875 0)"/>
      </g>
     </g>
    </g>
    <g id="ytick_9">
     <g id="line2d_18">
      <g>
       <use xlink:href="#md20d055e3e" x="51.468209" y="284.365959" style="stroke: #000000; stroke-width: 0.8"/>
      </g>
     </g>
     <g id="text_22">
      <!-- −50 -->
      <g transform="translate(23.363521 288.164787) scale(0.1 -0.1)">
       <defs>
        <path id="DejaVuSans-18" d="M 691 4666 
L 3169 4666 
L 3169 4134 
L 1269 4134 
L 1269 2991 
Q 1406 3038 1543 3061 
Q 1681 3084 1819 3084 
Q 2600 3084 3056 2656 
Q 3513 2228 3513 1497 
Q 3513 744 3044 326 
Q 2575 -91 1722 -91 
Q 1428 -91 1123 -41 
Q 819 9 494 109 
L 494 744 
Q 775 591 1075 516 
Q 1375 441 1709 441 
Q 2250 441 2565 725 
Q 2881 1009 2881 1497 
Q 2881 1984 2565 2268 
Q 2250 2553 1709 2553 
Q 1456 2553 1204 2497 
Q 953 2441 691 2322 
L 691 4666 
z
" transform="scale(0.015625)"/>
       </defs>
       <use xlink:href="#DejaVuSans-c9c"/>
       <use xlink:href="#DejaVuSans-18" transform="translate(83.796875 0)"/>
       <use xlink:href="#DejaVuSans-13" transform="translate(147.421875 0)"/>
      </g>
     </g>
    </g>
    <g id="ytick_10">
     <g id="line2d_19">
      <g>
       <use xlink:href="#md20d055e3e" x="51.468209" y="243.875449" style="stroke: #000000; stroke-width: 0.8"/>
      </g>
     </g>
     <g id="text_23">
      <!-- 0 -->
      <g transform="translate(38.105709 247.674277) scale(0.1 -0.1)">
       <use xlink:href="#DejaVuSans-13"/>
      </g>
     </g>
    </g>
    <g id="text_24">
     <!-- Δ pass_count -->
     <g transform="translate(10.598677 313.785095) rotate(-90) scale(0.1 -0.1)">
      <defs>
       <path id="DejaVuSans-42" d="M 3263 -1063 
L 3263 -1509 
L -63 -1509 
L -63 -1063 
L 3263 -1063 
z
" transform="scale(0.015625)"/>
       <path id="DejaVuSans-58" d="M 544 1381 
L 544 3500 
L 1119 3500 
L 1119 1403 
Q 1119 906 1312 657 
Q 1506 409 1894 409 
Q 2359 409 2629 706 
Q 2900 1003 2900 1516 
L 2900 3500 
L 3475 3500 
L 3475 0 
L 2900 0 
L 2900 538 
Q 2691 219 2414 64 
Q 2138 -91 1772 -91 
Q 1169 -91 856 284 
Q 544 659 544 1381 
z
M 1991 3584 
L 1991 3584 
z
" transform="scale(0.015625)"/>
       <path id="DejaVuSans-51" d="M 3513 2113 
L 3513 0 
L 2938 0 
L 2938 2094 
Q 2938 2591 2744 2837 
Q 2550 3084 2163 3084 
Q 1697 3084 1428 2787 
Q 1159 2491 1159 1978 
L 1159 0 
L 581 0 
L 581 3500 
L 1159 3500 
L 1159 2956 
Q 1366 3272 1645 3428 
Q 1925 3584 2291 3584 
Q 2894 3584 3203 3211 
Q 3513 2838 3513 2113 
z
" transform="scale(0.015625)"/>
      </defs>
      <use xlink:href="#DejaVuSans-329"/>
      <use xlink:href="#DejaVuSans-3" transform="translate(68.40625 0)"/>
      <use xlink:href="#DejaVuSans-53" transform="translate(100.1875 0)"/>
      <use xlink:href="#DejaVuSans-44" transform="translate(163.671875 0)"/>
      <use xlink:href="#DejaVuSans-56" transform="translate(224.953125 0)"/>
      <use xlink:href="#DejaVuSans-56" transform="translate(277.046875 0)"/>
      <use xlink:href="#DejaVuSans-42" transform="translate(329.140625 0)"/>
      <use xlink:href="#DejaVuSans-46" transform="translate(379.140625 0)"/>
      <use xlink:href="#DejaVuSans-52" transform="translate(434.125 0)"/>
      <use xlink:href="#DejaVuSans-58" transform="translate(495.3125 0)"/>
      <use xlink:href="#DejaVuSans-51" transform="translate(558.6875 0)"/>
      <use xlink:href="#DejaVuSans-57" transform="translate(622.0625 0)"/>
     </g>
    </g>
   </g>
   <g id="line2d_20">
    <path d="M 51.468209 243.875449 
L 716.99976 243.875449 
" clip-path="url(#p339da77240)" style="fill: none; stroke: #334450; stroke-width: 0.8; stroke-linecap: square"/>
   </g>
   <g id="patch_14">
    <path d="M 51.468209 354.212089 
L 51.468209 207.231538 
" style="fill: none; stroke: #000000; stroke-width: 0.8; stroke-linejoin: miter; stroke-linecap: square"/>
   </g>
   <g id="patch_15">
    <path d="M 51.468209 354.212089 
L 716.99976 354.212089 
" style="fill: none; stroke: #000000; stroke-width: 0.8; stroke-linejoin: miter; stroke-linecap: square"/>
   </g>
   <g id="text_25">
    <!-- +15 -->
    <g transform="translate(134.854529 226.325953) scale(0.1 -0.1)">
     <use xlink:href="#DejaVuSans-e"/>
     <use xlink:href="#DejaVuSans-14" transform="translate(83.796875 0)"/>
     <use xlink:href="#DejaVuSans-18" transform="translate(147.421875 0)"/>
    </g>
   </g>
   <g id="text_26">
    <!-- +15 -->
    <g transform="translate(294.072603 226.325953) scale(0.1 -0.1)">
     <use xlink:href="#DejaVuSans-e"/>
     <use xlink:href="#DejaVuSans-14" transform="translate(83.796875 0)"/>
     <use xlink:href="#DejaVuSans-18" transform="translate(147.421875 0)"/>
    </g>
   </g>
   <g id="text_27">
    <!-- -106 -->
    <g transform="translate(452.495365 340.312986) scale(0.1 -0.1)">
     <use xlink:href="#DejaVuSans-10"/>
     <use xlink:href="#DejaVuSans-14" transform="translate(36.078125 0)"/>
     <use xlink:href="#DejaVuSans-13" transform="translate(99.703125 0)"/>
     <use xlink:href="#DejaVuSans-19" transform="translate(163.328125 0)"/>
    </g>
   </g>
   <g id="text_28">
    <!-- -106 -->
    <g transform="translate(611.71344 340.312986) scale(0.1 -0.1)">
     <use xlink:href="#DejaVuSans-10"/>
     <use xlink:href="#DejaVuSans-14" transform="translate(36.078125 0)"/>
     <use xlink:href="#DejaVuSans-13" transform="translate(99.703125 0)"/>
     <use xlink:href="#DejaVuSans-19" transform="translate(163.328125 0)"/>
    </g>
   </g>
  </g>
  <g id="axes_3">
   <g id="patch_16">
    <path d="M 51.468209 541.995854 
L 716.99976 541.995854 
L 716.99976 395.015303 
L 51.468209 395.015303 
z
" style="fill: #ffffff"/>
   </g>
   <g id="patch_17">
    <path d="M 81.719643 395.015303 
L 209.094102 395.015303 
L 209.094102 512.599744 
L 81.719643 512.599744 
z
" clip-path="url(#p70a833599a)" style="fill: #087d85"/>
   </g>
   <g id="patch_18">
    <path d="M 240.937717 395.015303 
L 368.312177 395.015303 
L 368.312177 512.599744 
L 240.937717 512.599744 
z
" clip-path="url(#p70a833599a)" style="fill: #087d85"/>
   </g>
   <g id="patch_19">
    <path d="M 400.155792 395.015303 
L 527.530251 395.015303 
L 527.530251 425.320571 
L 400.155792 425.320571 
z
" clip-path="url(#p70a833599a)" style="fill: #087d85"/>
   </g>
   <g id="patch_20">
    <path d="M 559.373866 395.015303 
L 686.748326 395.015303 
L 686.748326 425.320571 
L 559.373866 425.320571 
z
" clip-path="url(#p70a833599a)" style="fill: #087d85"/>
   </g>
   <g id="matplotlib.axis_5">
    <g id="xtick_9">
     <g id="line2d_21">
      <g>
       <use xlink:href="#m6518d6369a" x="145.406873" y="541.995854" style="stroke: #000000; stroke-width: 0.8"/>
      </g>
     </g>
     <g id="text_29">
      <!-- 260909201 -->
      <g transform="translate(116.775623 557.594487) scale(0.1 -0.1)">
       <use xlink:href="#DejaVuSans-15"/>
       <use xlink:href="#DejaVuSans-19" transform="translate(63.625 0)"/>
       <use xlink:href="#DejaVuSans-13" transform="translate(127.25 0)"/>
       <use xlink:href="#DejaVuSans-1c" transform="translate(190.875 0)"/>
       <use xlink:href="#DejaVuSans-13" transform="translate(254.5 0)"/>
       <use xlink:href="#DejaVuSans-1c" transform="translate(318.125 0)"/>
       <use xlink:href="#DejaVuSans-15" transform="translate(381.75 0)"/>
       <use xlink:href="#DejaVuSans-13" transform="translate(445.375 0)"/>
       <use xlink:href="#DejaVuSans-14" transform="translate(509 0)"/>
      </g>
      <!-- posto 0 -->
      <g transform="translate(126.778748 569.59644) scale(0.1 -0.1)">
       <use xlink:href="#DejaVuSans-53"/>
       <use xlink:href="#DejaVuSans-52" transform="translate(63.484375 0)"/>
       <use xlink:href="#DejaVuSans-56" transform="translate(124.671875 0)"/>
       <use xlink:href="#DejaVuSans-57" transform="translate(176.765625 0)"/>
       <use xlink:href="#DejaVuSans-52" transform="translate(215.96875 0)"/>
       <use xlink:href="#DejaVuSans-3" transform="translate(277.15625 0)"/>
       <use xlink:href="#DejaVuSans-13" transform="translate(308.9375 0)"/>
      </g>
     </g>
    </g>
    <g id="xtick_10">
     <g id="line2d_22">
      <g>
       <use xlink:href="#m6518d6369a" x="304.624947" y="541.995854" style="stroke: #000000; stroke-width: 0.8"/>
      </g>
     </g>
     <g id="text_30">
      <!-- 260909201 -->
      <g transform="translate(275.993697 557.594487) scale(0.1 -0.1)">
       <use xlink:href="#DejaVuSans-15"/>
       <use xlink:href="#DejaVuSans-19" transform="translate(63.625 0)"/>
       <use xlink:href="#DejaVuSans-13" transform="translate(127.25 0)"/>
       <use xlink:href="#DejaVuSans-1c" transform="translate(190.875 0)"/>
       <use xlink:href="#DejaVuSans-13" transform="translate(254.5 0)"/>
       <use xlink:href="#DejaVuSans-1c" transform="translate(318.125 0)"/>
       <use xlink:href="#DejaVuSans-15" transform="translate(381.75 0)"/>
       <use xlink:href="#DejaVuSans-13" transform="translate(445.375 0)"/>
       <use xlink:href="#DejaVuSans-14" transform="translate(509 0)"/>
      </g>
      <!-- posto 1 -->
      <g transform="translate(285.996822 569.59644) scale(0.1 -0.1)">
       <use xlink:href="#DejaVuSans-53"/>
       <use xlink:href="#DejaVuSans-52" transform="translate(63.484375 0)"/>
       <use xlink:href="#DejaVuSans-56" transform="translate(124.671875 0)"/>
       <use xlink:href="#DejaVuSans-57" transform="translate(176.765625 0)"/>
       <use xlink:href="#DejaVuSans-52" transform="translate(215.96875 0)"/>
       <use xlink:href="#DejaVuSans-3" transform="translate(277.15625 0)"/>
       <use xlink:href="#DejaVuSans-14" transform="translate(308.9375 0)"/>
      </g>
     </g>
    </g>
    <g id="xtick_11">
     <g id="line2d_23">
      <g>
       <use xlink:href="#m6518d6369a" x="463.843022" y="541.995854" style="stroke: #000000; stroke-width: 0.8"/>
      </g>
     </g>
     <g id="text_31">
      <!-- 260909202 -->
      <g transform="translate(435.211772 557.594487) scale(0.1 -0.1)">
       <use xlink:href="#DejaVuSans-15"/>
       <use xlink:href="#DejaVuSans-19" transform="translate(63.625 0)"/>
       <use xlink:href="#DejaVuSans-13" transform="translate(127.25 0)"/>
       <use xlink:href="#DejaVuSans-1c" transform="translate(190.875 0)"/>
       <use xlink:href="#DejaVuSans-13" transform="translate(254.5 0)"/>
       <use xlink:href="#DejaVuSans-1c" transform="translate(318.125 0)"/>
       <use xlink:href="#DejaVuSans-15" transform="translate(381.75 0)"/>
       <use xlink:href="#DejaVuSans-13" transform="translate(445.375 0)"/>
       <use xlink:href="#DejaVuSans-15" transform="translate(509 0)"/>
      </g>
      <!-- posto 0 -->
      <g transform="translate(445.214897 569.59644) scale(0.1 -0.1)">
       <use xlink:href="#DejaVuSans-53"/>
       <use xlink:href="#DejaVuSans-52" transform="translate(63.484375 0)"/>
       <use xlink:href="#DejaVuSans-56" transform="translate(124.671875 0)"/>
       <use xlink:href="#DejaVuSans-57" transform="translate(176.765625 0)"/>
       <use xlink:href="#DejaVuSans-52" transform="translate(215.96875 0)"/>
       <use xlink:href="#DejaVuSans-3" transform="translate(277.15625 0)"/>
       <use xlink:href="#DejaVuSans-13" transform="translate(308.9375 0)"/>
      </g>
     </g>
    </g>
    <g id="xtick_12">
     <g id="line2d_24">
      <g>
       <use xlink:href="#m6518d6369a" x="623.061096" y="541.995854" style="stroke: #000000; stroke-width: 0.8"/>
      </g>
     </g>
     <g id="text_32">
      <!-- 260909202 -->
      <g transform="translate(594.429846 557.594487) scale(0.1 -0.1)">
       <use xlink:href="#DejaVuSans-15"/>
       <use xlink:href="#DejaVuSans-19" transform="translate(63.625 0)"/>
       <use xlink:href="#DejaVuSans-13" transform="translate(127.25 0)"/>
       <use xlink:href="#DejaVuSans-1c" transform="translate(190.875 0)"/>
       <use xlink:href="#DejaVuSans-13" transform="translate(254.5 0)"/>
       <use xlink:href="#DejaVuSans-1c" transform="translate(318.125 0)"/>
       <use xlink:href="#DejaVuSans-15" transform="translate(381.75 0)"/>
       <use xlink:href="#DejaVuSans-13" transform="translate(445.375 0)"/>
       <use xlink:href="#DejaVuSans-15" transform="translate(509 0)"/>
      </g>
      <!-- posto 1 -->
      <g transform="translate(604.432971 569.59644) scale(0.1 -0.1)">
       <use xlink:href="#DejaVuSans-53"/>
       <use xlink:href="#DejaVuSans-52" transform="translate(63.484375 0)"/>
       <use xlink:href="#DejaVuSans-56" transform="translate(124.671875 0)"/>
       <use xlink:href="#DejaVuSans-57" transform="translate(176.765625 0)"/>
       <use xlink:href="#DejaVuSans-52" transform="translate(215.96875 0)"/>
       <use xlink:href="#DejaVuSans-3" transform="translate(277.15625 0)"/>
       <use xlink:href="#DejaVuSans-14" transform="translate(308.9375 0)"/>
      </g>
     </g>
    </g>
   </g>
   <g id="matplotlib.axis_6">
    <g id="ytick_11">
     <g id="line2d_25">
      <g>
       <use xlink:href="#md20d055e3e" x="51.468209" y="540.48059" style="stroke: #000000; stroke-width: 0.8"/>
      </g>
     </g>
     <g id="text_33">
      <!-- −120 -->
      <g transform="translate(17.001021 544.279418) scale(0.1 -0.1)">
       <use xlink:href="#DejaVuSans-c9c"/>
       <use xlink:href="#DejaVuSans-14" transform="translate(83.796875 0)"/>
       <use xlink:href="#DejaVuSans-15" transform="translate(147.421875 0)"/>
       <use xlink:href="#DejaVuSans-13" transform="translate(211.046875 0)"/>
      </g>
     </g>
    </g>
    <g id="ytick_12">
     <g id="line2d_26">
      <g>
       <use xlink:href="#md20d055e3e" x="51.468209" y="516.236376" style="stroke: #000000; stroke-width: 0.8"/>
      </g>
     </g>
     <g id="text_34">
      <!-- −100 -->
      <g transform="translate(17.001021 520.035204) scale(0.1 -0.1)">
       <use xlink:href="#DejaVuSans-c9c"/>
       <use xlink:href="#DejaVuSans-14" transform="translate(83.796875 0)"/>
       <use xlink:href="#DejaVuSans-13" transform="translate(147.421875 0)"/>
       <use xlink:href="#DejaVuSans-13" transform="translate(211.046875 0)"/>
      </g>
     </g>
    </g>
    <g id="ytick_13">
     <g id="line2d_27">
      <g>
       <use xlink:href="#md20d055e3e" x="51.468209" y="491.992161" style="stroke: #000000; stroke-width: 0.8"/>
      </g>
     </g>
     <g id="text_35">
      <!-- −80 -->
      <g transform="translate(23.363521 495.790989) scale(0.1 -0.1)">
       <defs>
        <path id="DejaVuSans-1b" d="M 2034 2216 
Q 1584 2216 1326 1975 
Q 1069 1734 1069 1313 
Q 1069 891 1326 650 
Q 1584 409 2034 409 
Q 2484 409 2743 651 
Q 3003 894 3003 1313 
Q 3003 1734 2745 1975 
Q 2488 2216 2034 2216 
z
M 1403 2484 
Q 997 2584 770 2862 
Q 544 3141 544 3541 
Q 544 4100 942 4425 
Q 1341 4750 2034 4750 
Q 2731 4750 3128 4425 
Q 3525 4100 3525 3541 
Q 3525 3141 3298 2862 
Q 3072 2584 2669 2484 
Q 3125 2378 3379 2068 
Q 3634 1759 3634 1313 
Q 3634 634 3220 271 
Q 2806 -91 2034 -91 
Q 1263 -91 848 271 
Q 434 634 434 1313 
Q 434 1759 690 2068 
Q 947 2378 1403 2484 
z
M 1172 3481 
Q 1172 3119 1398 2916 
Q 1625 2713 2034 2713 
Q 2441 2713 2670 2916 
Q 2900 3119 2900 3481 
Q 2900 3844 2670 4047 
Q 2441 4250 2034 4250 
Q 1625 4250 1398 4047 
Q 1172 3844 1172 3481 
z
" transform="scale(0.015625)"/>
       </defs>
       <use xlink:href="#DejaVuSans-c9c"/>
       <use xlink:href="#DejaVuSans-1b" transform="translate(83.796875 0)"/>
       <use xlink:href="#DejaVuSans-13" transform="translate(147.421875 0)"/>
      </g>
     </g>
    </g>
    <g id="ytick_14">
     <g id="line2d_28">
      <g>
       <use xlink:href="#md20d055e3e" x="51.468209" y="467.747947" style="stroke: #000000; stroke-width: 0.8"/>
      </g>
     </g>
     <g id="text_36">
      <!-- −60 -->
      <g transform="translate(23.363521 471.546775) scale(0.1 -0.1)">
       <use xlink:href="#DejaVuSans-c9c"/>
       <use xlink:href="#DejaVuSans-19" transform="translate(83.796875 0)"/>
       <use xlink:href="#DejaVuSans-13" transform="translate(147.421875 0)"/>
      </g>
     </g>
    </g>
    <g id="ytick_15">
     <g id="line2d_29">
      <g>
       <use xlink:href="#md20d055e3e" x="51.468209" y="443.503732" style="stroke: #000000; stroke-width: 0.8"/>
      </g>
     </g>
     <g id="text_37">
      <!-- −40 -->
      <g transform="translate(23.363521 447.30256) scale(0.1 -0.1)">
       <use xlink:href="#DejaVuSans-c9c"/>
       <use xlink:href="#DejaVuSans-17" transform="translate(83.796875 0)"/>
       <use xlink:href="#DejaVuSans-13" transform="translate(147.421875 0)"/>
      </g>
     </g>
    </g>
    <g id="ytick_16">
     <g id="line2d_30">
      <g>
       <use xlink:href="#md20d055e3e" x="51.468209" y="419.259518" style="stroke: #000000; stroke-width: 0.8"/>
      </g>
     </g>
     <g id="text_38">
      <!-- −20 -->
      <g transform="translate(23.363521 423.058346) scale(0.1 -0.1)">
       <use xlink:href="#DejaVuSans-c9c"/>
       <use xlink:href="#DejaVuSans-15" transform="translate(83.796875 0)"/>
       <use xlink:href="#DejaVuSans-13" transform="translate(147.421875 0)"/>
      </g>
     </g>
    </g>
    <g id="ytick_17">
     <g id="line2d_31">
      <g>
       <use xlink:href="#md20d055e3e" x="51.468209" y="395.015303" style="stroke: #000000; stroke-width: 0.8"/>
      </g>
     </g>
     <g id="text_39">
      <!-- 0 -->
      <g transform="translate(38.105709 398.814131) scale(0.1 -0.1)">
       <use xlink:href="#DejaVuSans-13"/>
      </g>
     </g>
    </g>
    <g id="text_40">
     <!-- Δ move -->
     <g transform="translate(10.598677 487.480578) rotate(-90) scale(0.1 -0.1)">
      <defs>
       <path id="DejaVuSans-50" d="M 3328 2828 
Q 3544 3216 3844 3400 
Q 4144 3584 4550 3584 
Q 5097 3584 5394 3201 
Q 5691 2819 5691 2113 
L 5691 0 
L 5113 0 
L 5113 2094 
Q 5113 2597 4934 2840 
Q 4756 3084 4391 3084 
Q 3944 3084 3684 2787 
Q 3425 2491 3425 1978 
L 3425 0 
L 2847 0 
L 2847 2094 
Q 2847 2600 2669 2842 
Q 2491 3084 2119 3084 
Q 1678 3084 1418 2786 
Q 1159 2488 1159 1978 
L 1159 0 
L 581 0 
L 581 3500 
L 1159 3500 
L 1159 2956 
Q 1356 3278 1631 3431 
Q 1906 3584 2284 3584 
Q 2666 3584 2933 3390 
Q 3200 3197 3328 2828 
z
" transform="scale(0.015625)"/>
       <path id="DejaVuSans-59" d="M 191 3500 
L 800 3500 
L 1894 563 
L 2988 3500 
L 3597 3500 
L 2284 0 
L 1503 0 
L 191 3500 
z
" transform="scale(0.015625)"/>
       <path id="DejaVuSans-48" d="M 3597 1894 
L 3597 1613 
L 953 1613 
Q 991 1019 1311 708 
Q 1631 397 2203 397 
Q 2534 397 2845 478 
Q 3156 559 3463 722 
L 3463 178 
Q 3153 47 2828 -22 
Q 2503 -91 2169 -91 
Q 1331 -91 842 396 
Q 353 884 353 1716 
Q 353 2575 817 3079 
Q 1281 3584 2069 3584 
Q 2775 3584 3186 3129 
Q 3597 2675 3597 1894 
z
M 3022 2063 
Q 3016 2534 2758 2815 
Q 2500 3097 2075 3097 
Q 1594 3097 1305 2825 
Q 1016 2553 972 2059 
L 3022 2063 
z
" transform="scale(0.015625)"/>
      </defs>
      <use xlink:href="#DejaVuSans-329"/>
      <use xlink:href="#DejaVuSans-3" transform="translate(68.40625 0)"/>
      <use xlink:href="#DejaVuSans-50" transform="translate(100.1875 0)"/>
      <use xlink:href="#DejaVuSans-52" transform="translate(197.59375 0)"/>
      <use xlink:href="#DejaVuSans-59" transform="translate(258.78125 0)"/>
      <use xlink:href="#DejaVuSans-48" transform="translate(317.96875 0)"/>
     </g>
    </g>
   </g>
   <g id="line2d_32">
    <path d="M 51.468209 395.015303 
L 716.99976 395.015303 
" clip-path="url(#p70a833599a)" style="fill: none; stroke: #334450; stroke-width: 0.8; stroke-linecap: square"/>
   </g>
   <g id="patch_21">
    <path d="M 51.468209 541.995854 
L 51.468209 395.015303 
" style="fill: none; stroke: #000000; stroke-width: 0.8; stroke-linejoin: miter; stroke-linecap: square"/>
   </g>
   <g id="patch_22">
    <path d="M 51.468209 541.995854 
L 716.99976 541.995854 
" style="fill: none; stroke: #000000; stroke-width: 0.8; stroke-linejoin: miter; stroke-linecap: square"/>
   </g>
   <g id="text_41">
    <!-- -97 -->
    <g transform="translate(137.240466 523.1974) scale(0.1 -0.1)">
     <defs>
      <path id="DejaVuSans-1a" d="M 525 4666 
L 3525 4666 
L 3525 4397 
L 1831 0 
L 1172 0 
L 2766 4134 
L 525 4134 
L 525 4666 
z
" transform="scale(0.015625)"/>
     </defs>
     <use xlink:href="#DejaVuSans-10"/>
     <use xlink:href="#DejaVuSans-1c" transform="translate(36.078125 0)"/>
     <use xlink:href="#DejaVuSans-1a" transform="translate(99.703125 0)"/>
    </g>
   </g>
   <g id="text_42">
    <!-- -97 -->
    <g transform="translate(296.458541 523.1974) scale(0.1 -0.1)">
     <use xlink:href="#DejaVuSans-10"/>
     <use xlink:href="#DejaVuSans-1c" transform="translate(36.078125 0)"/>
     <use xlink:href="#DejaVuSans-1a" transform="translate(99.703125 0)"/>
    </g>
   </g>
   <g id="text_43">
    <!-- -25 -->
    <g transform="translate(455.676615 435.918227) scale(0.1 -0.1)">
     <use xlink:href="#DejaVuSans-10"/>
     <use xlink:href="#DejaVuSans-15" transform="translate(36.078125 0)"/>
     <use xlink:href="#DejaVuSans-18" transform="translate(99.703125 0)"/>
    </g>
   </g>
   <g id="text_44">
    <!-- -25 -->
    <g transform="translate(614.89469 435.918227) scale(0.1 -0.1)">
     <use xlink:href="#DejaVuSans-10"/>
     <use xlink:href="#DejaVuSans-15" transform="translate(36.078125 0)"/>
     <use xlink:href="#DejaVuSans-18" transform="translate(99.703125 0)"/>
    </g>
   </g>
  </g>
  <g id="text_45">
   <!-- V51C − V49F · validazione su seed nuovi -->
   <g transform="translate(236.8275 12.118365) scale(0.12 -0.12)">
    <defs>
     <path id="DejaVuSans-39" d="M 1831 0 
L 50 4666 
L 709 4666 
L 2188 738 
L 3669 4666 
L 4325 4666 
L 2547 0 
L 1831 0 
z
" transform="scale(0.015625)"/>
     <path id="DejaVuSans-26" d="M 4122 4306 
L 4122 3641 
Q 3803 3938 3442 4084 
Q 3081 4231 2675 4231 
Q 1875 4231 1450 3742 
Q 1025 3253 1025 2328 
Q 1025 1406 1450 917 
Q 1875 428 2675 428 
Q 3081 428 3442 575 
Q 3803 722 4122 1019 
L 4122 359 
Q 3791 134 3420 21 
Q 3050 -91 2638 -91 
Q 1578 -91 968 557 
Q 359 1206 359 2328 
Q 359 3453 968 4101 
Q 1578 4750 2638 4750 
Q 3056 4750 3426 4639 
Q 3797 4528 4122 4306 
z
" transform="scale(0.015625)"/>
     <path id="DejaVuSans-29" d="M 628 4666 
L 3309 4666 
L 3309 4134 
L 1259 4134 
L 1259 2759 
L 3109 2759 
L 3109 2228 
L 1259 2228 
L 1259 0 
L 628 0 
L 628 4666 
z
" transform="scale(0.015625)"/>
     <path id="DejaVuSans-79" d="M 684 2619 
L 1344 2619 
L 1344 1825 
L 684 1825 
L 684 2619 
z
" transform="scale(0.015625)"/>
     <path id="DejaVuSans-4f" d="M 603 4863 
L 1178 4863 
L 1178 0 
L 603 0 
L 603 4863 
z
" transform="scale(0.015625)"/>
     <path id="DejaVuSans-4c" d="M 603 3500 
L 1178 3500 
L 1178 0 
L 603 0 
L 603 3500 
z
M 603 4863 
L 1178 4863 
L 1178 4134 
L 603 4134 
L 603 4863 
z
" transform="scale(0.015625)"/>
     <path id="DejaVuSans-47" d="M 2906 2969 
L 2906 4863 
L 3481 4863 
L 3481 0 
L 2906 0 
L 2906 525 
Q 2725 213 2448 61 
Q 2172 -91 1784 -91 
Q 1150 -91 751 415 
Q 353 922 353 1747 
Q 353 2572 751 3078 
Q 1150 3584 1784 3584 
Q 2172 3584 2448 3432 
Q 2725 3281 2906 2969 
z
M 947 1747 
Q 947 1113 1208 752 
Q 1469 391 1925 391 
Q 2381 391 2643 752 
Q 2906 1113 2906 1747 
Q 2906 2381 2643 2742 
Q 2381 3103 1925 3103 
Q 1469 3103 1208 2742 
Q 947 2381 947 1747 
z
" transform="scale(0.015625)"/>
     <path id="DejaVuSans-5d" d="M 353 3500 
L 3084 3500 
L 3084 2975 
L 922 459 
L 3084 459 
L 3084 0 
L 275 0 
L 275 525 
L 2438 3041 
L 353 3041 
L 353 3500 
z
" transform="scale(0.015625)"/>
    </defs>
    <use xlink:href="#DejaVuSans-39"/>
    <use xlink:href="#DejaVuSans-18" transform="translate(68.40625 0)"/>
    <use xlink:href="#DejaVuSans-14" transform="translate(132.03125 0)"/>
    <use xlink:href="#DejaVuSans-26" transform="translate(195.65625 0)"/>
    <use xlink:href="#DejaVuSans-3" transform="translate(265.484375 0)"/>
    <use xlink:href="#DejaVuSans-c9c" transform="translate(297.265625 0)"/>
    <use xlink:href="#DejaVuSans-3" transform="translate(381.0625 0)"/>
    <use xlink:href="#DejaVuSans-39" transform="translate(412.84375 0)"/>
    <use xlink:href="#DejaVuSans-17" transform="translate(481.25 0)"/>
    <use xlink:href="#DejaVuSans-1c" transform="translate(544.875 0)"/>
    <use xlink:href="#DejaVuSans-29" transform="translate(608.5 0)"/>
    <use xlink:href="#DejaVuSans-3" transform="translate(666.015625 0)"/>
    <use xlink:href="#DejaVuSans-79" transform="translate(697.796875 0)"/>
    <use xlink:href="#DejaVuSans-3" transform="translate(729.578125 0)"/>
    <use xlink:href="#DejaVuSans-59" transform="translate(761.359375 0)"/>
    <use xlink:href="#DejaVuSans-44" transform="translate(820.546875 0)"/>
    <use xlink:href="#DejaVuSans-4f" transform="translate(881.828125 0)"/>
    <use xlink:href="#DejaVuSans-4c" transform="translate(909.609375 0)"/>
    <use xlink:href="#DejaVuSans-47" transform="translate(937.390625 0)"/>
    <use xlink:href="#DejaVuSans-44" transform="translate(1000.875 0)"/>
    <use xlink:href="#DejaVuSans-5d" transform="translate(1062.15625 0)"/>
    <use xlink:href="#DejaVuSans-4c" transform="translate(1114.640625 0)"/>
    <use xlink:href="#DejaVuSans-52" transform="translate(1142.421875 0)"/>
    <use xlink:href="#DejaVuSans-51" transform="translate(1203.609375 0)"/>
    <use xlink:href="#DejaVuSans-48" transform="translate(1266.984375 0)"/>
    <use xlink:href="#DejaVuSans-3" transform="translate(1328.515625 0)"/>
    <use xlink:href="#DejaVuSans-56" transform="translate(1360.296875 0)"/>
    <use xlink:href="#DejaVuSans-58" transform="translate(1412.390625 0)"/>
    <use xlink:href="#DejaVuSans-3" transform="translate(1475.765625 0)"/>
    <use xlink:href="#DejaVuSans-56" transform="translate(1507.546875 0)"/>
    <use xlink:href="#DejaVuSans-48" transform="translate(1559.640625 0)"/>
    <use xlink:href="#DejaVuSans-48" transform="translate(1621.171875 0)"/>
    <use xlink:href="#DejaVuSans-47" transform="translate(1682.703125 0)"/>
    <use xlink:href="#DejaVuSans-3" transform="translate(1746.1875 0)"/>
    <use xlink:href="#DejaVuSans-51" transform="translate(1777.96875 0)"/>
    <use xlink:href="#DejaVuSans-58" transform="translate(1841.34375 0)"/>
    <use xlink:href="#DejaVuSans-52" transform="translate(1904.71875 0)"/>
    <use xlink:href="#DejaVuSans-59" transform="translate(1965.90625 0)"/>
    <use xlink:href="#DejaVuSans-4c" transform="translate(2025.09375 0)"/>
   </g>
  </g>
 </g>
 <defs>
  <clipPath id="pa1cb1c52df">
   <rect x="51.468209" y="23.246601" width="665.531551" height="146.980551"/>
  </clipPath>
  <clipPath id="p339da77240">
   <rect x="51.468209" y="207.231538" width="665.531551" height="146.980551"/>
  </clipPath>
  <clipPath id="p70a833599a">
   <rect x="51.468209" y="395.015303" width="665.531551" height="146.980551"/>
  </clipPath>
 </defs>
</svg>
